<svg width="512" height="512" viewBox="0 0 512 512" fill="none" xmlns="http://www.w3.org/2000/svg">
<path d="M349.917 443.25L262 491.167L174.083 443.25C132.711 420.68 99.2964 385.913 78.3843 343.679C57.4722 301.445 50.0783 253.794 57.2084 207.208L60.125 188.042L74.5001 95.3333C199.5 95.3333 262 32.8333 262 32.8333C262 32.8333 324.5 95.3333 449.5 95.3333L463.875 188.042L466.792 207.208C473.922 253.794 466.528 301.445 445.616 343.679C424.704 385.913 391.289 420.68 349.917 443.25Z" fill="#56B54E"/>
<path d="M463.875 188.042C456.688 219.864 442.808 249.791 423.16 275.833C403.511 301.876 378.543 323.437 349.917 339.083L281.937 376.125C275.821 379.458 268.966 381.205 262 381.205C255.034 381.205 248.179 379.458 242.063 376.125L174.083 339.083C145.457 323.437 120.489 301.876 100.84 275.833C81.1916 249.791 67.3122 219.864 60.125 188.042L74.5 95.3333C199.5 95.3333 262 32.8333 262 32.8333C262 32.8333 324.5 95.3333 449.5 95.3333L463.875 188.042Z" fill="#60CC5A"/>
<path d="M487.292 204L470.083 92.1667C469.327 87.2493 466.836 82.7649 463.061 79.5245C459.285 76.2842 454.475 74.5019 449.5 74.5C335.604 74.5 277.229 18.5833 276.729 18.1042C272.826 14.2239 267.546 12.046 262.042 12.046C256.538 12.046 251.258 14.2239 247.354 18.1042C246.771 18.5833 188.396 74.5 74.5 74.5C69.5248 74.5019 64.7145 76.2842 60.9392 79.5245C57.1639 82.7649 54.6729 87.2493 53.9167 92.1667L36.7083 204C28.9899 254.801 37.0691 306.748 59.852 352.805C82.6349 398.863 119.021 436.807 164.083 461.5L252 509.417C255.061 511.087 258.492 511.962 261.979 511.962C265.466 511.962 268.897 511.087 271.958 509.417L359.875 461.5C404.945 436.813 441.34 398.872 464.13 352.814C486.921 306.755 495.006 254.806 487.292 204V204ZM339.958 424.833L262 467.438L184.042 424.917C146.473 404.351 116.133 372.737 97.1284 334.355C78.1239 295.974 71.3736 252.679 77.7917 210.333L92.375 115.729C153.202 114.367 212.248 94.9389 262 59.9167C311.732 94.9345 370.755 114.37 431.562 115.75L446.146 210.333C452.569 252.672 445.829 295.962 426.836 334.343C407.843 372.724 377.515 404.342 339.958 424.917V424.833Z" fill="black"/>
<path fill-rule="evenodd" clip-rule="evenodd" d="M246.879 146.698C239.083 133.294 219.595 133.294 211.799 146.698L126.841 292.777C119.045 306.181 128.789 322.936 144.38 322.936H210.704C204.042 317.113 201.575 307.041 206.616 298.399L270.96 188.104L246.879 146.698Z" fill="black"/>
<path d="M300.71 178.741C307.162 167.774 323.29 167.774 329.742 178.741L400.052 298.261C406.503 309.227 398.439 322.935 385.536 322.935H244.915C232.012 322.935 223.948 309.227 230.4 298.261L300.71 178.741Z" fill="black"/>
</svg>
