<svg width="277" height="36" viewBox="0 0 277 36" fill="none" xmlns="http://www.w3.org/2000/svg">
<path d="M43.95 28V13.12H47.34L47.64 15.64C48.1 14.76 48.76 14.06 49.62 13.54C50.5 13.02 51.53 12.76 52.71 12.76C54.55 12.76 55.98 13.34 57 14.5C58.02 15.66 58.53 17.36 58.53 19.6V28H54.69V19.96C54.69 18.68 54.43 17.7 53.91 17.02C53.39 16.34 52.58 16 51.48 16C50.4 16 49.51 16.38 48.81 17.14C48.13 17.9 47.79 18.96 47.79 20.32V28H43.95ZM70.782 28.36C68.922 28.36 67.482 27.78 66.462 26.62C65.462 25.46 64.962 23.76 64.962 21.52V13.12H68.772V21.16C68.772 22.44 69.032 23.42 69.552 24.1C70.072 24.78 70.892 25.12 72.012 25.12C73.072 25.12 73.942 24.74 74.622 23.98C75.322 23.22 75.672 22.16 75.672 20.8V13.12H79.512V28H76.122L75.822 25.48C75.362 26.36 74.692 27.06 73.812 27.58C72.952 28.1 71.942 28.36 70.782 28.36ZM85.0439 28L90.4439 20.56L85.0439 13.12H89.1539L92.9339 18.4L96.6839 13.12H100.824L95.3939 20.56L100.824 28H96.6839L92.9339 22.72L89.1539 28H85.0439ZM112.9 28C111.34 28 110.09 27.62 109.15 26.86C108.21 26.1 107.74 24.75 107.74 22.81V16.33H105.19V13.12H107.74L108.19 9.13H111.58V13.12H115.6V16.33H111.58V22.84C111.58 23.56 111.73 24.06 112.03 24.34C112.35 24.6 112.89 24.73 113.65 24.73H115.51V28H112.9ZM120.637 31.33L128.137 4.69H131.887L124.357 31.33H120.637Z" fill="#003C3C"/>
<path d="M143.674 28.36C142.354 28.36 141.194 28.15 140.194 27.73C139.194 27.29 138.394 26.69 137.794 25.93C137.194 25.17 136.834 24.29 136.714 23.29H140.584C140.704 23.87 141.024 24.37 141.544 24.79C142.084 25.19 142.774 25.39 143.614 25.39C144.454 25.39 145.064 25.22 145.444 24.88C145.844 24.54 146.044 24.15 146.044 23.71C146.044 23.07 145.764 22.64 145.204 22.42C144.644 22.18 143.864 21.95 142.864 21.73C142.224 21.59 141.574 21.42 140.914 21.22C140.254 21.02 139.644 20.77 139.084 20.47C138.544 20.15 138.104 19.75 137.764 19.27C137.424 18.77 137.254 18.16 137.254 17.44C137.254 16.12 137.774 15.01 138.814 14.11C139.874 13.21 141.354 12.76 143.254 12.76C145.014 12.76 146.414 13.17 147.454 13.99C148.514 14.81 149.144 15.94 149.344 17.38H145.714C145.494 16.28 144.664 15.73 143.224 15.73C142.504 15.73 141.944 15.87 141.544 16.15C141.164 16.43 140.974 16.78 140.974 17.2C140.974 17.64 141.264 17.99 141.844 18.25C142.424 18.51 143.194 18.75 144.154 18.97C145.194 19.21 146.144 19.48 147.004 19.78C147.884 20.06 148.584 20.49 149.104 21.07C149.624 21.63 149.884 22.44 149.884 23.5C149.904 24.42 149.664 25.25 149.164 25.99C148.664 26.73 147.944 27.31 147.004 27.73C146.064 28.15 144.954 28.36 143.674 28.36ZM163.516 28.36C162.016 28.36 160.686 28.04 159.526 27.4C158.366 26.76 157.456 25.86 156.796 24.7C156.136 23.54 155.806 22.2 155.806 20.68C155.806 19.14 156.126 17.77 156.766 16.57C157.426 15.37 158.326 14.44 159.466 13.78C160.626 13.1 161.986 12.76 163.546 12.76C165.006 12.76 166.296 13.08 167.416 13.72C168.536 14.36 169.406 15.24 170.026 16.36C170.666 17.46 170.986 18.69 170.986 20.05C170.986 20.27 170.976 20.5 170.956 20.74C170.956 20.98 170.946 21.23 170.926 21.49H159.616C159.696 22.65 160.096 23.56 160.816 24.22C161.556 24.88 162.446 25.21 163.486 25.21C164.266 25.21 164.916 25.04 165.436 24.7C165.976 24.34 166.376 23.88 166.636 23.32H170.536C170.256 24.26 169.786 25.12 169.126 25.9C168.486 26.66 167.686 27.26 166.726 27.7C165.786 28.14 164.716 28.36 163.516 28.36ZM163.546 15.88C162.606 15.88 161.776 16.15 161.056 16.69C160.336 17.21 159.876 18.01 159.676 19.09H167.086C167.026 18.11 166.666 17.33 166.006 16.75C165.346 16.17 164.526 15.88 163.546 15.88ZM184.506 28.36C182.986 28.36 181.646 28.03 180.486 27.37C179.326 26.71 178.406 25.79 177.726 24.61C177.066 23.43 176.736 22.08 176.736 20.56C176.736 19.04 177.066 17.69 177.726 16.51C178.406 15.33 179.326 14.41 180.486 13.75C181.646 13.09 182.986 12.76 184.506 12.76C186.406 12.76 188.006 13.26 189.306 14.26C190.606 15.24 191.436 16.6 191.796 18.34H187.746C187.546 17.62 187.146 17.06 186.546 16.66C185.966 16.24 185.276 16.03 184.476 16.03C183.416 16.03 182.516 16.43 181.776 17.23C181.036 18.03 180.666 19.14 180.666 20.56C180.666 21.98 181.036 23.09 181.776 23.89C182.516 24.69 183.416 25.09 184.476 25.09C185.276 25.09 185.966 24.89 186.546 24.49C187.146 24.09 187.546 23.52 187.746 22.78H191.796C191.436 24.46 190.606 25.81 189.306 26.83C188.006 27.85 186.406 28.36 184.506 28.36ZM203.784 28.36C201.924 28.36 200.484 27.78 199.464 26.62C198.464 25.46 197.964 23.76 197.964 21.52V13.12H201.774V21.16C201.774 22.44 202.034 23.42 202.554 24.1C203.074 24.78 203.894 25.12 205.014 25.12C206.074 25.12 206.944 24.74 207.624 23.98C208.324 23.22 208.674 22.16 208.674 20.8V13.12H212.514V28H209.124L208.824 25.48C208.364 26.36 207.694 27.06 206.814 27.58C205.954 28.1 204.944 28.36 203.784 28.36ZM219.456 28V13.12H222.876L223.236 15.91C223.776 14.95 224.506 14.19 225.426 13.63C226.366 13.05 227.466 12.76 228.726 12.76V16.81H227.646C226.806 16.81 226.056 16.94 225.396 17.2C224.736 17.46 224.216 17.91 223.836 18.55C223.476 19.19 223.296 20.08 223.296 21.22V28H219.456ZM236.42 10.81C235.72 10.81 235.14 10.6 234.68 10.18C234.24 9.76 234.02 9.23 234.02 8.59C234.02 7.95 234.24 7.43 234.68 7.03C235.14 6.61 235.72 6.4 236.42 6.4C237.12 6.4 237.69 6.61 238.13 7.03C238.59 7.43 238.82 7.95 238.82 8.59C238.82 9.23 238.59 9.76 238.13 10.18C237.69 10.6 237.12 10.81 236.42 10.81ZM234.5 28V13.12H238.34V28H234.5ZM251.978 28C250.418 28 249.168 27.62 248.228 26.86C247.288 26.1 246.818 24.75 246.818 22.81V16.33H244.268V13.12H246.818L247.268 9.13H250.658V13.12H254.678V16.33H250.658V22.84C250.658 23.56 250.808 24.06 251.108 24.34C251.428 24.6 251.968 24.73 252.728 24.73H254.588V28H251.978ZM262.835 34.6L266.285 27.01H265.385L259.595 13.12H263.765L267.935 23.59L272.285 13.12H276.365L266.915 34.6H262.835Z" fill="#00DC82"/>
<g clip-path="url(#clip0_1203_165)">
<g clip-path="url(#clip1_1203_165)">
<g clip-path="url(#clip2_1203_165)">
<path d="M21.5028 29.9717L16.3515 32.7793L11.2001 29.9717C8.77597 28.6492 6.81806 26.6121 5.59275 24.1374C4.36743 21.6628 3.93419 18.8707 4.35197 16.1411L4.52287 15.0181L5.36515 9.58594C12.6894 9.58594 16.3515 5.92383 16.3515 5.92383C16.3515 5.92383 20.0136 9.58594 27.3378 9.58594L28.1801 15.0181L28.351 16.1411C28.7688 18.8707 28.3355 21.6628 27.1102 24.1374C25.8849 26.6121 23.927 28.6492 21.5028 29.9717Z" fill="#56B54E"/>
<path d="M28.1797 15.0181C27.7586 16.8826 26.9453 18.6362 25.794 20.1621C24.6427 21.688 23.1798 22.9514 21.5024 23.8682L17.5193 26.0386C17.1609 26.2339 16.7592 26.3362 16.3511 26.3362C15.9429 26.3362 15.5413 26.2339 15.1829 26.0386L11.1997 23.8682C9.52237 22.9514 8.05941 21.688 6.90812 20.1621C5.75683 18.6362 4.94359 16.8826 4.52246 15.0181L5.36475 9.58594C12.689 9.58594 16.3511 5.92383 16.3511 5.92383C16.3511 5.92383 20.0132 9.58594 27.3374 9.58594L28.1797 15.0181Z" fill="#60CC5A"/>
<path d="M29.5524 15.9534L28.5441 9.40063C28.4998 9.1125 28.3538 8.84974 28.1326 8.65988C27.9114 8.47001 27.6296 8.36558 27.3381 8.36547C20.6645 8.36547 17.2441 5.0891 17.2148 5.06103C16.986 4.83367 16.6767 4.70605 16.3542 4.70605C16.0317 4.70605 15.7223 4.83367 15.4936 5.06103C15.4594 5.0891 12.039 8.36547 5.3654 8.36547C5.07388 8.36558 4.79203 8.47001 4.57082 8.65988C4.34961 8.84974 4.20365 9.1125 4.15934 9.40063L3.15104 15.9534C2.69879 18.93 3.17218 21.9737 4.50712 24.6724C5.84205 27.3711 7.97404 29.5944 10.6144 31.0413L15.7658 33.8489C15.9451 33.9467 16.1462 33.998 16.3505 33.998C16.5548 33.998 16.7559 33.9467 16.9352 33.8489L22.0866 31.0413C24.7274 29.5948 26.8599 27.3716 28.1953 24.6729C29.5307 21.9742 30.0044 18.9303 29.5524 15.9534V15.9534ZM20.9196 28.8928L16.3517 31.3892L11.7839 28.8977C9.58259 27.6927 7.80482 25.8403 6.69128 23.5914C5.57773 21.3424 5.18221 18.8056 5.55827 16.3245L6.41276 10.7812C9.97684 10.7014 13.4366 9.56306 16.3517 7.51098C19.2657 9.5628 22.7241 10.7016 26.287 10.7825L27.1415 16.3245C27.5179 18.8052 27.1229 21.3418 26.0101 23.5906C24.8972 25.8395 23.1202 27.6921 20.9196 28.8977V28.8928Z" fill="black"/>
<path fill-rule="evenodd" clip-rule="evenodd" d="M15.4657 12.5954C15.009 11.81 13.867 11.81 13.4103 12.5954L8.43224 21.1547C7.97548 21.9401 8.54643 22.9218 9.45997 22.9218H13.3461C12.9557 22.5806 12.8112 21.9905 13.1066 21.4841L16.8767 15.0215L15.4657 12.5954Z" fill="black"/>
<path d="M18.62 14.4731C18.998 13.8306 19.943 13.8306 20.321 14.4731L24.4408 21.4762C24.8188 22.1188 24.3463 22.922 23.5903 22.922H15.3508C14.5947 22.922 14.1222 22.1188 14.5002 21.4762L18.62 14.4731Z" fill="black"/>
</g>
</g>
</g>
<defs>
<clipPath id="clip0_1203_165">
<rect width="30" height="30" fill="white" transform="translate(1 4)"/>
</clipPath>
<clipPath id="clip1_1203_165">
<rect width="30" height="30" fill="white" transform="translate(1 4)"/>
</clipPath>
<clipPath id="clip2_1203_165">
<rect width="29.2969" height="29.2969" fill="white" transform="translate(1.70312 4.70312)"/>
</clipPath>
</defs>
</svg>
